<?xml version="1.0" standalone="no"?>
<!DOCTYPE svg PUBLIC "-//W3C//DTD SVG 20010904//EN"
 "http://www.w3.org/TR/2001/REC-SVG-20010904/DTD/svg10.dtd">
<svg version="1.0" xmlns="http://www.w3.org/2000/svg"
 width="32.000000pt" height="32.000000pt" viewBox="0 0 32.000000 32.000000"
 preserveAspectRatio="xMidYMid meet">

<g transform="translate(0.000000,32.000000) scale(0.100000,-0.100000)"
fill="#000000" stroke="none">
<path d="M92 304 c-107 -55 -121 -198 -26 -271 96 -73 238 -10 251 111 14 119
-120 214 -225 160z m62 -131 c-8 -55 -23 -92 -24 -56 0 12 -6 24 -12 26 -8 3
-6 6 5 6 18 1 25 21 6 21 -6 0 -3 7 5 16 9 8 16 20 16 25 0 5 3 9 6 9 3 0 2
-21 -2 -47z m50 5 c7 -5 5 -8 -6 -8 -20 0 -25 -20 -5 -20 8 0 9 -3 1 -8 -6 -4
-16 -16 -23 -27 -10 -17 -11 -13 -6 25 4 25 9 54 13 65 l6 20 4 -20 c2 -11 9
-23 16 -27z m-104 14 c0 -5 -15 -15 -32 -24 l-33 -15 34 -17 c18 -10 31 -20
28 -23 -7 -6 -67 29 -67 39 0 5 15 17 33 28 37 23 37 23 37 12z m187 -37 c4
-12 -55 -50 -64 -42 -3 3 10 13 28 23 l34 17 -33 15 c-17 9 -32 20 -32 25 0
11 62 -24 67 -38z"/>
</g>
</svg>
